<svg width="28" height="28" viewBox="0 0 28 28" fill="none" xmlns="http://www.w3.org/2000/svg">
<path d="M13.9993 0.666504C17.622 0.666504 18.074 0.679837 19.4953 0.746504C20.9153 0.813171 21.882 1.03584 22.7327 1.3665C23.6127 1.70517 24.354 2.16384 25.0954 2.90384C25.7733 3.57037 26.298 4.37662 26.6327 5.2665C26.962 6.11584 27.186 7.08384 27.2527 8.50384C27.3153 9.92517 27.3327 10.3772 27.3327 13.9998C27.3327 17.6225 27.3194 18.0745 27.2527 19.4958C27.186 20.9158 26.962 21.8825 26.6327 22.7332C26.2989 23.6235 25.7742 24.43 25.0954 25.0958C24.4286 25.7736 23.6224 26.2982 22.7327 26.6332C21.8833 26.9625 20.9153 27.1865 19.4953 27.2532C18.074 27.3158 17.622 27.3332 13.9993 27.3332C10.3767 27.3332 9.92468 27.3198 8.50335 27.2532C7.08335 27.1865 6.11668 26.9625 5.26602 26.6332C4.37578 26.2991 3.56939 25.7744 2.90335 25.0958C2.22522 24.4294 1.70059 23.6231 1.36602 22.7332C1.03535 21.8838 0.812682 20.9158 0.746016 19.4958C0.683349 18.0745 0.666016 17.6225 0.666016 13.9998C0.666016 10.3772 0.679349 9.92517 0.746016 8.50384C0.812682 7.0825 1.03535 6.11717 1.36602 5.2665C1.69966 4.37608 2.22442 3.5696 2.90335 2.90384C3.56958 2.22548 4.37592 1.70081 5.26602 1.3665C6.11668 1.03584 7.08202 0.813171 8.50335 0.746504C9.92468 0.683837 10.3767 0.666504 13.9993 0.666504ZM13.9993 7.33317C12.2312 7.33317 10.5355 8.03555 9.2853 9.28579C8.03506 10.536 7.33268 12.2317 7.33268 13.9998C7.33268 15.7679 8.03506 17.4636 9.2853 18.7139C10.5355 19.9641 12.2312 20.6665 13.9993 20.6665C15.7675 20.6665 17.4632 19.9641 18.7134 18.7139C19.9636 17.4636 20.666 15.7679 20.666 13.9998C20.666 12.2317 19.9636 10.536 18.7134 9.28579C17.4632 8.03555 15.7675 7.33317 13.9993 7.33317ZM22.666 6.99984C22.666 6.55781 22.4904 6.13389 22.1779 5.82133C21.8653 5.50877 21.4414 5.33317 20.9993 5.33317C20.5573 5.33317 20.1334 5.50877 19.8208 5.82133C19.5083 6.13389 19.3327 6.55781 19.3327 6.99984C19.3327 7.44186 19.5083 7.86579 19.8208 8.17835C20.1334 8.49091 20.5573 8.6665 20.9993 8.6665C21.4414 8.6665 21.8653 8.49091 22.1779 8.17835C22.4904 7.86579 22.666 7.44186 22.666 6.99984ZM13.9993 9.99984C15.0602 9.99984 16.0776 10.4213 16.8278 11.1714C17.5779 11.9216 17.9993 12.939 17.9993 13.9998C17.9993 15.0607 17.5779 16.0781 16.8278 16.8283C16.0776 17.5784 15.0602 17.9998 13.9993 17.9998C12.9385 17.9998 11.9211 17.5784 11.1709 16.8283C10.4208 16.0781 9.99935 15.0607 9.99935 13.9998C9.99935 12.939 10.4208 11.9216 11.1709 11.1714C11.9211 10.4213 12.9385 9.99984 13.9993 9.99984Z" fill="#F2323D"/>
</svg>
